<?xml version="1.0" encoding="UTF-8" standalone="no"?>
<!-- Created with Inkscape (http://www.inkscape.org/) -->

<svg
   width="246.84172"
   height="246.95654"
   viewBox="0 0 65.310205 65.340585"
   version="1.1"
   id="svg1"
   sodipodi:docname="simon-machine-yellow-ul.svg"
   inkscape:export-filename="yellow-button-ul.png"
   inkscape:export-xdpi="96"
   inkscape:export-ydpi="96"
   inkscape:version="1.3.2 (091e20e, 2023-11-25)"
   xmlns:inkscape="http://www.inkscape.org/namespaces/inkscape"
   xmlns:sodipodi="http://sodipodi.sourceforge.net/DTD/sodipodi-0.dtd"
   xmlns="http://www.w3.org/2000/svg"
   xmlns:svg="http://www.w3.org/2000/svg">
  <sodipodi:namedview
     id="namedview1"
     pagecolor="#ffffff"
     bordercolor="#000000"
     borderopacity="0.25"
     inkscape:showpageshadow="2"
     inkscape:pageopacity="0.0"
     inkscape:pagecheckerboard="0"
     inkscape:deskcolor="#d1d1d1"
     inkscape:zoom="0.95563372"
     inkscape:cx="122.95506"
     inkscape:cy="122.95506"
     inkscape:window-width="1136"
     inkscape:window-height="736"
     inkscape:window-x="130"
     inkscape:window-y="49"
     inkscape:window-maximized="0"
     inkscape:current-layer="svg1" />
  <defs
     id="defs1" />
  <g
     id="layer1"
     transform="translate(-9.1374483,-9.1070652)"
     style="display:none;fill:#ffff00;fill-opacity:1"
     inkscape:export-filename="yellow-button-ul.png"
     inkscape:export-xdpi="96"
     inkscape:export-ydpi="96"
     sodipodi:insensitive="true">
    <path
       id="path1"
       style="display:none;fill:#ffff00;fill-opacity:1;stroke:none;stroke-width:0.313719;stroke-linejoin:round"
       d="M 157.27047,79.374994 A 77.89546,77.895217 0 0 1 79.374993,157.27023 77.89546,77.895217 0 0 1 1.4795346,79.374994 77.89546,77.895217 0 0 1 79.374993,1.4797746 77.89546,77.895217 0 0 1 157.27047,79.374994 Z" />
    <path
       id="path8"
       style="display:inline;fill:#ffff00;fill-opacity:1;stroke:none;stroke-width:0.285193;stroke-linejoin:round"
       d="m 71.812797,9.122293 c -32.98162,3.608651 -59.067554,29.70713 -62.6602551,62.690389 -0.1582221,1.452578 0.9467391,2.63497 2.4079931,2.63497 h 60.241284 a 2.6458333,2.6458333 135 0 0 2.645833,-2.645833 V 11.529012 c 0,-1.461253 -1.182353,-2.565643 -2.634855,-2.406719 z" />
  </g>
  <g
     id="g3"
     transform="translate(-9.1374483,-9.1070652)"
     style="fill:#ffff7f;fill-opacity:1"
     inkscape:export-filename="yellow-button-ul-lit.png"
     inkscape:export-xdpi="96"
     inkscape:export-ydpi="96">
    <path
       id="path2"
       style="display:none;fill:#ffff7f;fill-opacity:1;stroke:none;stroke-width:0.313719;stroke-linejoin:round"
       d="M 157.27047,79.374994 A 77.89546,77.895217 0 0 1 79.374993,157.27023 77.89546,77.895217 0 0 1 1.4795346,79.374994 77.89546,77.895217 0 0 1 79.374993,1.4797746 77.89546,77.895217 0 0 1 157.27047,79.374994 Z" />
    <path
       id="path3"
       style="display:inline;fill:#ffff7f;fill-opacity:1;stroke:none;stroke-width:0.285193;stroke-linejoin:round"
       d="m 71.812797,9.122293 c -32.98162,3.608651 -59.067554,29.70713 -62.6602551,62.690389 -0.1582221,1.452578 0.9467391,2.63497 2.4079931,2.63497 h 60.241284 a 2.6458333,2.6458333 135 0 0 2.645833,-2.645833 V 11.529012 c 0,-1.461253 -1.182353,-2.565643 -2.634855,-2.406719 z" />
  </g>
</svg>
