<?xml version="1.0" encoding="UTF-8" standalone="no"?>
<!-- Created with Inkscape (http://www.inkscape.org/) -->

<svg
   width="500"
   height="500"
   viewBox="0 0 132.29167 132.29167"
   version="1.1"
   id="svg1"
   inkscape:version="1.3.2 (091e20e, 2023-11-25)"
   sodipodi:docname="simon-machine-body.svg"
   inkscape:export-filename="simon-machine.svg"
   inkscape:export-xdpi="4.8000002"
   inkscape:export-ydpi="4.8000002"
   xmlns:inkscape="http://www.inkscape.org/namespaces/inkscape"
   xmlns:sodipodi="http://sodipodi.sourceforge.net/DTD/sodipodi-0.dtd"
   xmlns="http://www.w3.org/2000/svg"
   xmlns:svg="http://www.w3.org/2000/svg">
  <sodipodi:namedview
     id="namedview1"
     pagecolor="#ffffff"
     bordercolor="#000000"
     borderopacity="0.25"
     inkscape:showpageshadow="2"
     inkscape:pageopacity="0.0"
     inkscape:pagecheckerboard="0"
     inkscape:deskcolor="#d1d1d1"
     inkscape:document-units="mm"
     inkscape:zoom="0.87705101"
     inkscape:cx="232.02755"
     inkscape:cy="259.39198"
     inkscape:window-width="1512"
     inkscape:window-height="838"
     inkscape:window-x="0"
     inkscape:window-y="38"
     inkscape:window-maximized="0"
     inkscape:current-layer="layer1" />
  <defs
     id="defs1">
    <inkscape:path-effect
       effect="fillet_chamfer"
       id="path-effect18"
       is_visible="true"
       lpeversion="1"
       nodesatellites_param="F,0,0,1,0,2.6458333,0,1 @ F,0,0,1,0,2.6458333,0,1 @ F,0,0,1,0,2.6458333,0,1"
       radius="10"
       unit="px"
       method="auto"
       mode="F"
       chamfer_steps="1"
       flexible="false"
       use_knot_distance="true"
       apply_no_radius="true"
       apply_with_radius="true"
       only_selected="false"
       hide_knots="false" />
    <inkscape:path-effect
       effect="fillet_chamfer"
       id="path-effect16"
       is_visible="true"
       lpeversion="1"
       nodesatellites_param="F,0,0,1,0,2.6458333,0,1 @ F,0,0,1,0,2.6458333,0,1 @ F,0,0,1,0,2.6458333,0,1"
       radius="10"
       unit="px"
       method="auto"
       mode="F"
       chamfer_steps="1"
       flexible="false"
       use_knot_distance="true"
       apply_no_radius="true"
       apply_with_radius="true"
       only_selected="false"
       hide_knots="false" />
    <inkscape:path-effect
       effect="fillet_chamfer"
       id="path-effect14"
       is_visible="true"
       lpeversion="1"
       nodesatellites_param="F,0,0,1,0,2.6458333,0,1 @ F,0,0,1,0,2.6458333,0,1 @ F,0,0,1,0,2.6458333,0,1"
       radius="10"
       unit="px"
       method="auto"
       mode="F"
       chamfer_steps="1"
       flexible="false"
       use_knot_distance="true"
       apply_no_radius="true"
       apply_with_radius="true"
       only_selected="false"
       hide_knots="false" />
    <inkscape:path-effect
       effect="fillet_chamfer"
       id="path-effect8"
       is_visible="true"
       lpeversion="1"
       nodesatellites_param="F,0,0,1,0,2.6458333,0,1 @ F,0,0,1,0,2.6458333,0,1 @ F,0,0,1,0,2.6458333,0,1"
       radius="10"
       unit="px"
       method="auto"
       mode="F"
       chamfer_steps="1"
       flexible="false"
       use_knot_distance="true"
       apply_no_radius="true"
       apply_with_radius="true"
       only_selected="false"
       hide_knots="false" />
    <inkscape:path-effect
       effect="fillet_chamfer"
       id="path-effect13"
       is_visible="true"
       lpeversion="1"
       nodesatellites_param="F,0,0,1,0,2.6458333,0,1 @ F,0,0,1,0,2.6458333,0,1 @ F,0,0,1,0,2.6458333,0,1"
       radius="10"
       unit="px"
       method="auto"
       mode="F"
       chamfer_steps="1"
       flexible="false"
       use_knot_distance="true"
       apply_no_radius="true"
       apply_with_radius="true"
       only_selected="false"
       hide_knots="false" />
    <inkscape:path-effect
       effect="fillet_chamfer"
       id="path-effect12"
       is_visible="true"
       lpeversion="1"
       nodesatellites_param="F,0,0,1,0,2.6458333,0,1 @ F,0,0,1,0,2.6458333,0,1 @ F,0,0,1,0,2.6458333,0,1"
       radius="10"
       unit="px"
       method="auto"
       mode="F"
       chamfer_steps="1"
       flexible="false"
       use_knot_distance="true"
       apply_no_radius="true"
       apply_with_radius="true"
       only_selected="false"
       hide_knots="false" />
    <inkscape:path-effect
       effect="fillet_chamfer"
       id="path-effect11"
       is_visible="true"
       lpeversion="1"
       nodesatellites_param="F,0,0,1,0,2.6458333,0,1 @ F,0,0,1,0,2.6458333,0,1 @ F,0,0,1,0,2.6458333,0,1"
       radius="10"
       unit="px"
       method="auto"
       mode="F"
       chamfer_steps="1"
       flexible="false"
       use_knot_distance="true"
       apply_no_radius="true"
       apply_with_radius="true"
       only_selected="false"
       hide_knots="false" />
    <inkscape:path-effect
       effect="fillet_chamfer"
       id="path-effect10"
       is_visible="true"
       lpeversion="1"
       nodesatellites_param="F,0,0,1,0,2.6458333,0,1 @ F,0,0,1,0,2.6458333,0,1 @ F,0,0,1,0,2.6458333,0,1"
       radius="10"
       unit="px"
       method="auto"
       mode="F"
       chamfer_steps="1"
       flexible="false"
       use_knot_distance="true"
       apply_no_radius="true"
       apply_with_radius="true"
       only_selected="false"
       hide_knots="false" />
  </defs>
  <g
     inkscape:label="Layer 1"
     inkscape:groupmode="layer"
     id="layer1"
     style="display:inline">
    <path
       id="path1"
       style="display:inline;fill:#000000;fill-opacity:1;stroke:none;stroke-width:0.261408;stroke-linejoin:round"
       d="M 131.05273,66.145825 A 64.906885,64.906683 0 0 1 66.145825,131.05253 64.906885,64.906683 0 0 1 1.2389406,66.145825 64.906885,64.906683 0 0 1 66.145825,1.2391406 64.906885,64.906683 0 0 1 131.05273,66.145825 Z"
       inkscape:export-filename="../public/img/simon-body.png"
       inkscape:export-xdpi="97.82"
       inkscape:export-ydpi="97.82" />
    <path
       id="path1-8"
       style="display:inline;fill:#00b900;fill-opacity:1;stroke:none;stroke-width:0.285193;stroke-linejoin:round"
       d="m 86.937739,149.64454 c 33.049251,-3.5401 59.220561,-29.66447 62.819901,-62.707223 0.15823,-1.452578 -0.94672,-2.634969 -2.40797,-2.634969 H 86.948181 a 2.6458333,2.6458333 135 0 0 -2.645833,2.645833 v 60.283659 c 0,1.46125 1.182532,2.56832 2.635391,2.4127 z"
       inkscape:path-effect="#path-effect12"
       inkscape:original-d="M 84.302348,149.87767 A 70.812688,70.812468 0 0 0 149.9955,84.302348 H 84.302348 Z"
       inkscape:export-filename="../public/img/green-button-lr.png"
       inkscape:export-xdpi="95.447388"
       inkscape:export-ydpi="95.447388"
       transform="matrix(0.83325633,0,0,0.83325633,0.00610906,0.00610907)" />
    <path
       id="path10"
       style="display:inline;fill:#0000ff;fill-opacity:1;stroke:none;stroke-width:0.285193;stroke-linejoin:round"
       d="M 71.801819,84.302348 H 11.560535 c -1.461254,0 -2.5662152,1.182392 -2.407993,2.634971 3.592702,32.983261 29.678636,59.081741 62.660255,62.690391 1.452502,0.15892 2.634855,-0.94547 2.634855,-2.40672 V 86.948181 a 2.6458333,2.6458333 45 0 0 -2.645833,-2.645833 z"
       inkscape:path-effect="#path-effect13"
       inkscape:original-d="M 74.447652,84.302348 H 8.9147013 A 70.812688,70.812468 0 0 0 74.447652,149.86682 Z"
       inkscape:export-filename="../public/img/blue-button-ll.png"
       inkscape:export-xdpi="95.68148"
       inkscape:export-ydpi="95.68148"
       transform="matrix(0.83325633,0,0,0.83325633,0.00610906,0.00610907)" />
    <path
       id="path6"
       style="display:inline;fill:#ff0000;fill-opacity:1;stroke:none;stroke-width:0.285193;stroke-linejoin:round"
       d="m 86.948181,74.447652 h 60.401489 c 1.46125,0 2.5662,-1.182391 2.40797,-2.634969 C 146.15831,38.769928 119.987,12.64556 86.937739,9.105459 85.48488,8.9498347 84.302348,10.056907 84.302348,11.51816 v 60.283659 a 2.6458333,2.6458333 45 0 0 2.645833,2.645833 z"
       inkscape:path-effect="#path-effect11"
       inkscape:original-d="M 84.302348,74.447652 H 149.9955 A 70.812688,70.812468 0 0 0 84.302348,8.8723267 Z"
       inkscape:export-filename="../public/img/red-button-ur.png"
       inkscape:export-xdpi="95.449997"
       inkscape:export-ydpi="95.449997"
       transform="matrix(0.83325633,0,0,0.83325633,0.00610906,0.00610907)" />
    <path
       id="path8"
       style="display:inline;fill:#ffd000;fill-opacity:1;stroke:none;stroke-width:0.285193;stroke-linejoin:round"
       d="m 71.812797,9.122293 c -32.98162,3.608651 -59.067554,29.70713 -62.6602551,62.690389 -0.1582221,1.452578 0.9467391,2.63497 2.4079931,2.63497 h 60.241284 a 2.6458333,2.6458333 135 0 0 2.645833,-2.645833 V 11.529012 c 0,-1.461253 -1.182353,-2.565643 -2.634855,-2.406719 z"
       inkscape:path-effect="#path-effect10"
       inkscape:original-d="M 74.447652,8.8831787 A 70.812688,70.812468 0 0 0 8.9147013,74.447652 H 74.447652 Z"
       inkscape:export-filename="../public/img/yellow-button-ul.png"
       inkscape:export-xdpi="95.68148"
       inkscape:export-ydpi="95.68148"
       transform="matrix(0.83325633,0,0,0.83325633,0.00610906,0.00610907)" />
  </g>
  <g
     inkscape:label="Layer 1 copy"
     inkscape:groupmode="layer"
     id="g7"
     style="display:none">
    <path
       id="path3"
       style="display:inline;fill:#00ff00;fill-opacity:1;stroke:none;stroke-width:0.285193;stroke-linejoin:round"
       d="m 86.937739,149.64454 c 33.049251,-3.5401 59.220561,-29.66447 62.819901,-62.707223 0.15823,-1.452578 -0.94672,-2.634969 -2.40797,-2.634969 H 86.948181 a 2.6458333,2.6458333 135 0 0 -2.645833,2.645833 v 60.283659 c 0,1.46125 1.182532,2.56832 2.635391,2.4127 z"
       inkscape:path-effect="#path-effect8"
       inkscape:original-d="M 84.302348,149.87767 A 70.812688,70.812468 0 0 0 149.9955,84.302348 H 84.302348 Z"
       inkscape:export-filename="../public/img/green-button-lr-lit.png"
       inkscape:export-xdpi="95.447388"
       inkscape:export-ydpi="95.447388"
       transform="matrix(0.83325633,0,0,0.83325633,0.00610906,0.00610907)" />
    <path
       id="path4"
       style="display:inline;fill:#00b4ff;fill-opacity:1;stroke:none;stroke-width:0.285193;stroke-linejoin:round"
       d="M 71.801819,84.302348 H 11.560535 c -1.461254,0 -2.5662152,1.182392 -2.407993,2.634971 3.592702,32.983261 29.678636,59.081741 62.660255,62.690391 1.452502,0.15892 2.634855,-0.94547 2.634855,-2.40672 V 86.948181 a 2.6458333,2.6458333 45 0 0 -2.645833,-2.645833 z"
       inkscape:path-effect="#path-effect14"
       inkscape:original-d="M 74.447652,84.302348 H 8.9147013 A 70.812688,70.812468 0 0 0 74.447652,149.86682 Z"
       inkscape:export-filename="../public/img/blue-button-ll-lit.png"
       inkscape:export-xdpi="95.68148"
       inkscape:export-ydpi="95.68148"
       transform="matrix(0.83325633,0,0,0.83325633,0.00610906,0.00610907)" />
    <path
       id="path5"
       style="display:inline;fill:#ff668c;fill-opacity:1;stroke:none;stroke-width:0.285193;stroke-linejoin:round"
       d="m 86.948181,74.447652 h 60.401489 c 1.46125,0 2.5662,-1.182391 2.40797,-2.634969 C 146.15831,38.769928 119.987,12.64556 86.937739,9.105459 85.48488,8.9498347 84.302348,10.056907 84.302348,11.51816 v 60.283659 a 2.6458333,2.6458333 45 0 0 2.645833,2.645833 z"
       inkscape:path-effect="#path-effect16"
       inkscape:original-d="M 84.302348,74.447652 H 149.9955 A 70.812688,70.812468 0 0 0 84.302348,8.8723267 Z"
       inkscape:export-filename="../public/img/red-button-ur-lit.png"
       inkscape:export-xdpi="95.449997"
       inkscape:export-ydpi="95.449997"
       transform="matrix(0.83325633,0,0,0.83325633,0.00610906,0.00610907)" />
    <path
       id="path7"
       style="display:inline;fill:#ffff92;fill-opacity:1;stroke:none;stroke-width:0.285193;stroke-linejoin:round"
       d="m 71.812797,9.122293 c -32.98162,3.608651 -59.067554,29.70713 -62.6602551,62.690389 -0.1582221,1.452578 0.9467391,2.63497 2.4079931,2.63497 h 60.241284 a 2.6458333,2.6458333 135 0 0 2.645833,-2.645833 V 11.529012 c 0,-1.461253 -1.182353,-2.565643 -2.634855,-2.406719 z"
       inkscape:path-effect="#path-effect18"
       inkscape:original-d="M 74.447652,8.8831787 A 70.812688,70.812468 0 0 0 8.9147013,74.447652 H 74.447652 Z"
       inkscape:export-filename="../public/img/yellow-button-ul-lit.png"
       inkscape:export-xdpi="95.68148"
       inkscape:export-ydpi="95.68148"
       transform="matrix(0.83325633,0,0,0.83325633,0.00610906,0.00610907)" />
  </g>
</svg>
