<?xml version="1.0" encoding="UTF-8" standalone="no"?>
<!-- Created with Inkscape (http://www.inkscape.org/) -->

<svg
   width="600"
   height="600"
   viewBox="0 0 158.75 158.75"
   version="1.1"
   id="svg1"
   xmlns="http://www.w3.org/2000/svg"
   xmlns:svg="http://www.w3.org/2000/svg">
  <defs
     id="defs1" />
  <g
     id="layer1">
    <path
       id="path1"
       style="fill:#000000;fill-opacity:1;stroke:none;stroke-width:0.313719;stroke-linejoin:round"
       d="M 157.27047,79.374994 A 77.89546,77.895217 0 0 1 79.374993,157.27023 77.89546,77.895217 0 0 1 1.4795346,79.374994 77.89546,77.895217 0 0 1 79.374993,1.4797746 77.89546,77.895217 0 0 1 157.27047,79.374994 Z" />
    <path
       id="path1-8"
       style="fill:#00ff00;fill-opacity:1;stroke:none;stroke-width:0.285193;stroke-linejoin:round"
       d="m 86.937739,149.64454 c 33.049251,-3.5401 59.220561,-29.66447 62.819901,-62.707223 0.15823,-1.452578 -0.94672,-2.634969 -2.40797,-2.634969 H 86.948181 a 2.6458333,2.6458333 135 0 0 -2.645833,2.645833 v 60.283659 c 0,1.46125 1.182532,2.56832 2.635391,2.4127 z" />
    <path
       id="path10"
       style="fill:#0000ff;fill-opacity:1;stroke:none;stroke-width:0.285193;stroke-linejoin:round"
       d="M 71.801819,84.302348 H 11.560535 c -1.461254,0 -2.5662152,1.182392 -2.407993,2.634971 3.592702,32.983261 29.678636,59.081741 62.660255,62.690391 1.452502,0.15892 2.634855,-0.94547 2.634855,-2.40672 V 86.948181 a 2.6458333,2.6458333 45 0 0 -2.645833,-2.645833 z" />
    <path
       id="path6"
       style="fill:#ff0000;fill-opacity:1;stroke:none;stroke-width:0.285193;stroke-linejoin:round"
       d="m 86.948181,74.447652 h 60.401489 c 1.46125,0 2.5662,-1.182391 2.40797,-2.634969 C 146.15831,38.769928 119.987,12.64556 86.937739,9.105459 85.48488,8.9498347 84.302348,10.056907 84.302348,11.51816 v 60.283659 a 2.6458333,2.6458333 45 0 0 2.645833,2.645833 z" />
    <path
       id="path8"
       style="fill:#ffff00;fill-opacity:1;stroke:none;stroke-width:0.285193;stroke-linejoin:round"
       d="m 71.812797,9.122293 c -32.98162,3.608651 -59.067554,29.70713 -62.6602551,62.690389 -0.1582221,1.452578 0.9467391,2.63497 2.4079931,2.63497 h 60.241284 a 2.6458333,2.6458333 135 0 0 2.645833,-2.645833 V 11.529012 c 0,-1.461253 -1.182353,-2.565643 -2.634855,-2.406719 z" />
  </g>
</svg>
