<?xml version="1.0" encoding="UTF-8" standalone="no"?>
<!-- Created with Inkscape (http://www.inkscape.org/) -->

<svg
   width="246.84172"
   height="246.95654"
   viewBox="0 0 65.310205 65.340585"
   version="1.1"
   id="svg1"
   sodipodi:docname="simon-machine-blue-ll.svg"
   inkscape:version="1.3.2 (091e20e, 2023-11-25)"
   xmlns:inkscape="http://www.inkscape.org/namespaces/inkscape"
   xmlns:sodipodi="http://sodipodi.sourceforge.net/DTD/sodipodi-0.dtd"
   xmlns="http://www.w3.org/2000/svg"
   xmlns:svg="http://www.w3.org/2000/svg">
  <sodipodi:namedview
     id="namedview1"
     pagecolor="#ffffff"
     bordercolor="#000000"
     borderopacity="0.25"
     inkscape:showpageshadow="2"
     inkscape:pageopacity="0.0"
     inkscape:pagecheckerboard="0"
     inkscape:deskcolor="#d1d1d1"
     inkscape:zoom="0.95563372"
     inkscape:cx="123.47827"
     inkscape:cy="122.95506"
     inkscape:window-width="1136"
     inkscape:window-height="736"
     inkscape:window-x="206"
     inkscape:window-y="114"
     inkscape:window-maximized="0"
     inkscape:current-layer="g4" />
  <defs
     id="defs1" />
  <g
     id="layer1"
     transform="translate(-9.1374483,-84.302345)"
     inkscape:export-filename="blue-button-ll.png"
     inkscape:export-xdpi="96"
     inkscape:export-ydpi="96"
     style="display:none;fill:#0012ff;fill-opacity:1"
     sodipodi:insensitive="true">
    <path
       id="path1"
       style="display:none;fill:#0012ff;fill-opacity:1;stroke:none;stroke-width:0.313719;stroke-linejoin:round"
       d="M 157.27047,79.374994 A 77.89546,77.895217 0 0 1 79.374993,157.27023 77.89546,77.895217 0 0 1 1.4795346,79.374994 77.89546,77.895217 0 0 1 79.374993,1.4797746 77.89546,77.895217 0 0 1 157.27047,79.374994 Z" />
    <path
       id="path10"
       style="display:inline;fill:#0012ff;fill-opacity:1;stroke:none;stroke-width:0.285193;stroke-linejoin:round"
       d="M 71.801819,84.302348 H 11.560535 c -1.461254,0 -2.5662152,1.182392 -2.407993,2.634971 3.592702,32.983261 29.678636,59.081741 62.660255,62.690391 1.452502,0.15892 2.634855,-0.94547 2.634855,-2.40672 V 86.948181 a 2.6458333,2.6458333 45 0 0 -2.645833,-2.645833 z" />
  </g>
  <g
     id="g4"
     transform="translate(-9.1374483,-84.302345)"
     inkscape:export-filename="blue-button-ll.png"
     inkscape:export-xdpi="96"
     inkscape:export-ydpi="96"
     style="display:inline;fill:#0012ff;fill-opacity:1">
    <path
       id="path3"
       style="display:none;fill:#0012ff;fill-opacity:1;stroke:none;stroke-width:0.313719;stroke-linejoin:round"
       d="M 157.27047,79.374994 A 77.89546,77.895217 0 0 1 79.374993,157.27023 77.89546,77.895217 0 0 1 1.4795346,79.374994 77.89546,77.895217 0 0 1 79.374993,1.4797746 77.89546,77.895217 0 0 1 157.27047,79.374994 Z" />
    <path
       id="path4"
       style="display:inline;fill:#0088ff;fill-opacity:1;stroke:none;stroke-width:0.285193;stroke-linejoin:round"
       d="M 71.801819,84.302348 H 11.560535 c -1.461254,0 -2.5662152,1.182392 -2.407993,2.634971 3.592702,32.983261 29.678636,59.081741 62.660255,62.690391 1.452502,0.15892 2.634855,-0.94547 2.634855,-2.40672 V 86.948181 a 2.6458333,2.6458333 45 0 0 -2.645833,-2.645833 z"
       inkscape:export-filename="blue-button-ll-lit.png"
       inkscape:export-xdpi="96"
       inkscape:export-ydpi="96" />
  </g>
</svg>
