<?xml version="1.0" encoding="UTF-8" standalone="no"?>
<!-- Created with Inkscape (http://www.inkscape.org/) -->

<svg
   width="247.44714"
   height="247.01781"
   viewBox="0 0 65.47039 65.356795"
   version="1.1"
   id="svg1"
   sodipodi:docname="simon-machine-red-ur.svg"
   inkscape:version="1.3.2 (091e20e, 2023-11-25)"
   xmlns:inkscape="http://www.inkscape.org/namespaces/inkscape"
   xmlns:sodipodi="http://sodipodi.sourceforge.net/DTD/sodipodi-0.dtd"
   xmlns="http://www.w3.org/2000/svg"
   xmlns:svg="http://www.w3.org/2000/svg">
  <sodipodi:namedview
     id="namedview1"
     pagecolor="#ffffff"
     bordercolor="#000000"
     borderopacity="0.25"
     inkscape:showpageshadow="2"
     inkscape:pageopacity="0.0"
     inkscape:pagecheckerboard="0"
     inkscape:deskcolor="#d1d1d1"
     inkscape:zoom="0.95539671"
     inkscape:cx="124.03225"
     inkscape:cy="122.98556"
     inkscape:window-width="1136"
     inkscape:window-height="736"
     inkscape:window-x="43"
     inkscape:window-y="38"
     inkscape:window-maximized="0"
     inkscape:current-layer="svg1" />
  <defs
     id="defs1" />
  <g
     id="layer1"
     transform="translate(-84.302345,-9.0908537)"
     style="display:none;fill:#ff0000;fill-opacity:1"
     inkscape:export-filename="red-button-ur.png"
     inkscape:export-xdpi="96"
     inkscape:export-ydpi="96"
     sodipodi:insensitive="true">
    <path
       id="path1"
       style="display:none;fill:#ff0000;fill-opacity:1;stroke:none;stroke-width:0.313719;stroke-linejoin:round"
       d="M 157.27047,79.374994 A 77.89546,77.895217 0 0 1 79.374993,157.27023 77.89546,77.895217 0 0 1 1.4795346,79.374994 77.89546,77.895217 0 0 1 79.374993,1.4797746 77.89546,77.895217 0 0 1 157.27047,79.374994 Z" />
    <path
       id="path6"
       style="display:inline;fill:#ff0000;fill-opacity:1;stroke:none;stroke-width:0.285193;stroke-linejoin:round"
       d="m 86.948181,74.447652 h 60.401489 c 1.46125,0 2.5662,-1.182391 2.40797,-2.634969 C 146.15831,38.769928 119.987,12.64556 86.937739,9.105459 85.48488,8.9498347 84.302348,10.056907 84.302348,11.51816 v 60.283659 a 2.6458333,2.6458333 45 0 0 2.645833,2.645833 z" />
  </g>
  <g
     id="g3"
     transform="translate(-84.302345,-9.0908537)"
     style="fill:#ff0082;fill-opacity:1"
     inkscape:export-filename="red-button-ur-lit.png"
     inkscape:export-xdpi="96"
     inkscape:export-ydpi="96">
    <path
       id="path2"
       style="display:none;fill:#ff0082;fill-opacity:1;stroke:none;stroke-width:0.313719;stroke-linejoin:round"
       d="M 157.27047,79.374994 A 77.89546,77.895217 0 0 1 79.374993,157.27023 77.89546,77.895217 0 0 1 1.4795346,79.374994 77.89546,77.895217 0 0 1 79.374993,1.4797746 77.89546,77.895217 0 0 1 157.27047,79.374994 Z" />
    <path
       id="path3"
       style="display:inline;fill:#ff0082;fill-opacity:1;stroke:none;stroke-width:0.285193;stroke-linejoin:round"
       d="m 86.948181,74.447652 h 60.401489 c 1.46125,0 2.5662,-1.182391 2.40797,-2.634969 C 146.15831,38.769928 119.987,12.64556 86.937739,9.105459 85.48488,8.9498347 84.302348,10.056907 84.302348,11.51816 v 60.283659 a 2.6458333,2.6458333 45 0 0 2.645833,2.645833 z" />
  </g>
</svg>
